<svg xmlns="http://www.w3.org/2000/svg" xml:space="preserve" viewBox="0.8 0.8 162 55"><path fill="#3768fb" fill-rule="evenodd" d="M21.5 28.4h6.1V55h-6.1v-2.8c-2.5 2.4-5.2 3.5-8.1 3.5-3.6 0-6.7-1.3-9-4C2 49.1.8 45.7.8 41.6c0-4 1.2-7.3 3.5-10s5.3-4 8.9-4c3.1 0 5.8 1.3 8.3 3.8v-3zM7 41.6c0 2.5.7 4.6 2 6.2 1.4 1.6 3.1 2.4 5.3 2.4 2.3 0 4.1-.8 5.5-2.3 1.4-1.6 2.1-3.7 2.1-6.2s-.7-4.5-2.1-6.2a6.85 6.85 0 0 0-5.4-2.4c-2.1 0-3.8.8-5.3 2.4A9.61 9.61 0 0 0 7 41.6zM40 7.8V55h-6.1V11.3L40 7.8zm12.4-7V55h-6.1V4.3L52.4.8zm12.4 27.6V55h-6.1V28.4h6.1zm-7-11c0-1.1.4-2 1.2-2.8.8-.8 1.7-1.2 2.8-1.2 1.1 0 2 .4 2.8 1.2.8.8 1.2 1.7 1.2 2.8s-.4 2.1-1.2 2.8c-.8.8-1.7 1.2-2.8 1.2-1.1 0-2-.4-2.8-1.2-.8-.7-1.2-1.7-1.2-2.8zm32.8 11h6.1V55h-6.1v-2.8c-2.5 2.4-5.2 3.5-8.1 3.5-3.6 0-6.7-1.3-9-4C71.1 49 70 45.6 70 41.6s1.2-7.3 3.5-10c2.4-2.7 5.3-4 8.9-4 3.1 0 5.8 1.3 8.3 3.8v-3zM76.1 41.6c0 2.5.7 4.6 2 6.2 1.4 1.6 3.1 2.4 5.3 2.4 2.3 0 4.1-.8 5.5-2.3 1.4-1.6 2.1-3.7 2.1-6.2s-.7-4.5-2.1-6.2a6.85 6.85 0 0 0-5.4-2.4c-2.1 0-3.8.8-5.3 2.4a9.61 9.61 0 0 0-2.1 6.1zM103 28.4h6.1v2.5c2.1-2.1 4.5-3.2 7.2-3.2 3.1 0 5.5 1 7.2 2.9 1.5 1.7 2.2 4.4 2.2 8.1V55h-6.1V40.2c0-2.6-.4-4.4-1.1-5.4-.7-1-2-1.5-3.8-1.5-2 0-3.5.7-4.3 2-.8 1.3-1.2 3.6-1.2 7V55H103V28.4zm35.3 5.8V55h-6.1V34.2h-2.6v-5.7h2.6v-9.7h6.1v9.7h4.7v5.7h-4.7zm22.8-1.2-5 2.7c-.8-1.6-1.8-2.5-3-2.5-.6 0-1 .2-1.4.6-.4.4-.6.8-.6 1.4 0 1 1.2 2 3.5 3 3.2 1.4 5.4 2.7 6.5 3.9 1.1 1.2 1.7 2.8 1.7 4.8 0 2.6-.9 4.7-2.8 6.4-1.8 1.6-4 2.5-6.6 2.5-4.4 0-7.6-2.2-9.4-6.5l5.2-2.4c.7 1.3 1.3 2.1 1.7 2.4.7.7 1.6 1 2.7 1 2.1 0 3.1-.9 3.1-2.8 0-1.1-.8-2.1-2.4-3.1l-1.8-.9c-.6-.3-1.2-.6-1.9-.9-1.8-.9-3-1.7-3.7-2.6-.9-1.1-1.4-2.5-1.4-4.3 0-2.3.8-4.2 2.4-5.7 1.6-1.5 3.6-2.3 5.8-2.3 3.3 0 5.8 1.8 7.4 5.3z" clip-rule="evenodd"></path></svg>
