<svg xmlns="http://www.w3.org/2000/svg" viewBox="0 0 200 47.1"><path fill="#ffffff" d="M43.6 25.4H27.7c.7-3.3 3.7-5.4 7.9-5.4 3.9-.1 6.8 1.9 8 5.4m10 7.1v-1c0-12.8-7.4-20.6-18.1-20.6-4.6 0-9.1 1.9-12.5 5.4-3.4 3.4-5.2 7.8-5.2 12.6s1.7 9.2 5 12.7c3.5 3.7 7.6 5.5 12.8 5.5 7.6 0 13.2-3.6 16.4-10.7H41a7.43 7.43 0 0 1-5.2 1.9c-4.4 0-6.9-1.9-7.9-5.5h25.6l.1-.3zm27.6-7.1H65.4c.7-3.3 3.7-5.4 7.9-5.4 3.9-.1 6.8 1.9 7.9 5.4m10.1 7.1v-1c0-12.8-7.4-20.6-18.1-20.6-4.6 0-9.1 1.9-12.5 5.4-3.4 3.4-5.2 7.8-5.2 12.6s1.7 9.2 5 12.7c3.5 3.7 7.6 5.5 12.8 5.5 7.5 0 13.2-3.6 16.4-10.7h-11a7.43 7.43 0 0 1-5.2 1.9c-4.4 0-6.9-1.9-7.9-5.5h25.6l.1-.3zM3.7 19.6v26.6h9.8V19.6h3.9V12h-3.9v-.9c0-3.1.7-4.1 3.7-4.1h.2V.1c-.6 0-1-.1-1.6-.1C7.5 0 3.6 3.3 3.6 10.6c0 .4.1.8.1 1.3H0v7.6h3.7v.1zm91.4 0v26.6h9.8V19.6h3.9V12h-3.9v-.9c0-3.1.7-4.1 3.7-4.1h.2V.1c-.6 0-1-.1-1.6-.1C98.9 0 95 3.3 95 10.6c0 .4.1.8.1 1.3h-3.7v7.6h3.7v.1zm39.6 9.4c0 4.7-3.6 8.4-8 8.4s-8-3.7-8-8.4 3.6-8.5 8-8.5c4.3 0 8 3.8 8 8.5m9.8-.2c0-4.7-2-9.3-5.5-12.8-3.4-3.3-7.6-5-12.6-5-4.6 0-9.1 1.9-12.5 5.4-3.4 3.4-5.2 7.8-5.2 12.6s1.7 9.2 5 12.6c3.5 3.7 7.6 5.5 12.8 5.5 5.1 0 9.4-1.9 12.8-5.4 3.5-3.6 5.2-7.8 5.2-12.9"></path><path fill="#fddc47" d="M159.9 23.2c-4.9-.3-8.7-4.2-8.9-9h20.9V14c0-8.3-5.3-13.9-12.6-13.9-7.7 0-12.9 5.7-12.9 13.1 0 7 5.4 13.1 12.8 13.1 5.3 0 9.6-3 11.9-8.5H169a9.5 9.5 0 0 1-8.6 5.5h-.5m26.6-.1c4.9-.3 8.7-4.2 8.9-9h-20.9V14c0-8.3 5.3-13.9 12.6-13.9 7.7 0 12.9 5.7 12.9 13.1 0 7-5.4 13.1-12.8 13.1-5.3 0-9.6-3-11.9-8.5h2.1c1.5 3.3 4.9 5.5 8.5 5.5h.6"></path></svg>
