<svg xmlns="http://www.w3.org/2000/svg" fill="none" viewBox="0 0 466 121"><g fill="#fff" clip-path="url(#a)"><path d="m-45.29 34.07-19.38 8.5-.09.03c-4.22 1.51-8.87-.84-10.62-4.96L-88.91 5.78c-3.69-8.7-16.98-7.26-18.02 2.13-.04.39-.07.79-.07 1.19v99.89c0 8.09 8.88 13.04 15.76 8.79l13.84-8.55c2.7-1.67 6.02-2 9-.91l23.11 10.27c9.32 3.43 17.64-6.97 12.25-15.31l-13.8-21.35a10.32 10.32 0 0 1 0-11.22l13.8-21.35c5.39-8.32-2.93-18.72-12.25-15.29Zm427.36 86.59a27.79 27.79 0 0 1-19.75-8.18 27.76 27.76 0 0 1-8.18-19.75V58.8h15.8v33.94c0 6.69 4.6 13.06 12.13 13.06 7.53 0 12.13-6.37 12.13-13.06V58.8H410v33.94c0 7.46-2.9 14.47-8.18 19.75a27.76 27.76 0 0 1-19.75 8.17ZM221.86 57.49c7.46 0 14.47 2.91 19.75 8.18a27.76 27.76 0 0 1 8.18 19.75v33.94h-15.8V85.42c0-6.69-4.6-13.06-12.13-13.06-7.53 0-12.13 6.37-12.13 13.06v33.94h-15.8V85.42c0-7.46 2.9-14.47 8.18-19.75a27.76 27.76 0 0 1 19.75-8.18ZM71.02 95.5c2.06 7.63 7.75 11.38 17.08 11.38 5.94 0 10.54-2.06 13.57-6.06l12.6 7.27c-5.94 8.6-14.78 12.96-26.4 12.96-10.05 0-18.05-3.03-24.1-9.08-6.06-6.06-9.08-13.69-9.08-22.89 0-9.08 3.03-16.72 8.96-22.77 5.93-6.18 13.69-9.2 23.01-9.2 8.84 0 16.23 3.03 21.92 9.2 5.81 6.18 8.72 13.69 8.72 22.77 0 2.06-.24 4.12-.61 6.42H71.02Zm30.64-12.12c-1.82-8.24-7.87-12.24-15.02-12.24-8.36 0-14.05 4.48-15.87 12.24h30.89Zm38.47 12.12c2.06 7.63 7.75 11.38 17.08 11.38 5.94 0 10.54-2.06 13.57-6.06l12.6 7.27c-5.94 8.6-14.78 12.96-26.4 12.96-10.05 0-18.05-3.03-24.1-9.08-6.05-6.05-9.08-13.69-9.08-22.89 0-9.08 3.03-16.72 8.96-22.77 5.93-6.18 13.69-9.2 23.01-9.2 8.84 0 16.23 3.03 21.92 9.2 5.81 6.18 8.72 13.69 8.72 22.77 0 2.06-.24 4.12-.61 6.42h-45.67Zm30.64-12.12c-1.82-8.24-7.87-12.24-15.02-12.24-8.36 0-14.05 4.48-15.87 12.24h30.89Zm85.99-40.34a9.77 9.77 0 0 1 9.57-9.69 9.8 9.8 0 0 1 9.69 9.69 9.7 9.7 0 0 1-9.69 9.57 9.67 9.67 0 0 1-9.57-9.57Zm1.82 76.32V58.8h15.62v60.56h-15.62Zm55.55 1.69c-8.96 0-16.59-3.03-22.77-9.2-6.18-6.18-9.21-13.81-9.21-22.77 0-8.96 3.03-16.47 9.21-22.65 6.18-6.18 13.81-9.33 22.77-9.33 8.96 0 16.59 3.15 22.77 9.33s9.33 13.69 9.33 22.65c0 8.96-3.15 16.59-9.33 22.77-6.18 6.17-13.81 9.2-22.77 9.2Zm0-15.26c4.72 0 8.6-1.57 11.75-4.73 3.15-3.15 4.72-7.15 4.72-11.99 0-4.85-1.58-8.84-4.72-11.99a15.9 15.9 0 0 0-11.75-4.73 15.9 15.9 0 0 0-11.75 4.73c-3.03 3.15-4.6 7.15-4.6 11.99s1.57 8.84 4.6 11.99c3.15 3.16 7.03 4.73 11.75 4.73Zm131.32-23.13c8.84 1.82 20.35 6.06 20.23 19.01 0 6.18-2.3 11.02-7.02 14.41-4.6 3.27-10.42 4.97-17.32 4.97-12.48 0-20.95-4.85-25.43-14.41l13.57-7.63c1.82 5.21 5.69 7.87 11.87 7.87 5.57 0 8.36-1.7 8.36-5.21 0-3.27-4.84-5.09-11.02-6.66-8.96-2.3-20.23-6.06-20.23-18.65 0-5.94 2.18-10.66 6.54-14.05 4.48-3.51 9.93-5.21 16.47-5.21 9.81 0 18.29 4.6 23.01 12.84l-13.32 7.27c-1.94-4.12-5.21-6.18-9.69-6.18-4 0-7.02 1.94-7.02 4.97-.02 3.27 4.83 5.08 11 6.66Z"/><path d="M40.33 119.36H58.5L33.43 88.71 57.77 58.8H39.12L19.9 83.38h-3.98V33.62H.3v85.74h15.62V95.5h5.28l19.13 23.86Z"/></g><defs><clipPath id="a"><path fill="#fff" d="M0 0h466v121H0z"/></clipPath></defs></svg>
