<svg xmlns="http://www.w3.org/2000/svg" viewBox="0.14 0.02 157.57 26.74"><g fill="none" fill-rule="evenodd"><g fill="#fff"><path d="M111.46 23.1h3.3c.1 0 .18-.08.18-.18V.22a.2.2 0 0 0-.2-.2h-3.26a.2.2 0 0 0-.2.2v22.7c0 .1.08.18.18.18M47.4 20.02a5.09 5.09 0 1 1 .01-10.18 5.09 5.09 0 0 1 0 10.18m0-13.8a8.73 8.73 0 0 0 0 17.44 8.73 8.73 0 0 0 0-17.44M125.63 20.02a5.09 5.09 0 1 1 .01-10.18 5.09 5.09 0 0 1-.01 10.18m0-13.8a8.73 8.73 0 0 0 0 17.44 8.73 8.73 0 0 0 0-17.44M68.74 6.62l-4.6 11.43-4.61-11.43a.2.2 0 0 0-.18-.12h-3.6a.2.2 0 0 0-.17.26l6.74 16.5c.03.07.1.12.18.12h3.29a.2.2 0 0 0 .18-.12l6.74-16.5a.2.2 0 0 0-.18-.26h-3.6a.2.2 0 0 0-.19.12M94.97 7.45v-.8c0-.1-.09-.19-.19-.19h-3.3c-.1 0-.18.08-.18.19v16.53c0 .11.09.2.2.2h3.27a.2.2 0 0 0 .2-.2v-9.11c0-1.49.36-2.57 1.08-3.21.74-.67 1.7-1 2.85-1h.65c.1 0 .2-.1.2-.2V6.4a.2.2 0 0 0-.2-.2h-.65c-1.58 0-2.9.42-3.93 1.24M103.38 1.58c-1.3 1.17-1.95 2.87-1.95 5.07V22.9c0 .1.09.19.2.19h3.34c.1 0 .2-.09.2-.2V10h4.23c.1 0 .19-.08.19-.19v-3.2a.2.2 0 0 0-.2-.2h-4.22c.03-1.05.3-1.8.8-2.23.53-.46 1.46-.65 2.7-.55l.7.06a.2.2 0 0 0 .22-.19V.28a.2.2 0 0 0-.18-.19l-.61-.04c-2.3-.16-4.13.36-5.42 1.53M153.91 6.63l-3.08 10.44-3.29-10.44a.18.18 0 0 0-.17-.13h-2.96a.19.19 0 0 0-.18.13l-3.28 10.44-3.08-10.44a.19.19 0 0 0-.18-.13h-3.43a.19.19 0 0 0-.18.24l5.06 16.5c.03.09.1.14.18.14h3.14c.08 0 .15-.05.18-.13l3.25-10.2 3.25 10.2c.03.08.1.13.18.13h3.14c.08 0 .15-.05.18-.13l5.06-16.51a.19.19 0 0 0-.18-.24h-3.43a.19.19 0 0 0-.18.13M77.37 10.96a5.17 5.17 0 0 1 3.52-1.24c1.21 0 2.28.4 3.18 1.17a4.61 4.61 0 0 1 1.43 2.31h-9.6c.28-.88.77-1.64 1.47-2.24zm8.11 6.98a.2.2 0 0 0-.26.05 6.85 6.85 0 0 1-1.51 1.48c-.71.4-1.58.6-2.58.6a5.5 5.5 0 0 1-3.56-1.16 4.4 4.4 0 0 1-1.45-2.14H89c.1 0 .2-.08.2-.18l.06-.58a9.01 9.01 0 0 0-2.23-7.15 7.77 7.77 0 0 0-6.09-2.64c-2.55 0-4.68.84-6.32 2.5a8.55 8.55 0 0 0-2.46 6.22c0 2.5.84 4.6 2.5 6.25a8.8 8.8 0 0 0 6.44 2.47 9.1 9.1 0 0 0 4.35-1.03 8.12 8.12 0 0 0 2.73-2.35l.24-.36a.2.2 0 0 0-.06-.27z"></path></g><path fill="#fb5d2e" d="M30.52 11.74c0-.1-.09-.18-.2-.18h-3.45a11.54 11.54 0 1 1-23.1 0H.32c-.1 0-.18.08-.18.18v.02c.1 8.29 6.88 15 15.2 15 8.3 0 15.08-6.72 15.19-15v-.01"></path><path fill="#16b4f2" d="M15.32.02A11.54 11.54 0 0 0 3.78 11.56h23.08C26.86 5.2 21.69.02 15.32.02"></path><path fill="#2c2c96" d="M26.86 11.56a11.54 11.54 0 1 1-23.08 0z"></path></g></svg>
