<svg xmlns="http://www.w3.org/2000/svg" viewBox="0.47 0 122 32"><path fill="#fff" fill-rule="evenodd" d="m59.9 0-5.15 2.2v14.06a9.9 9.9 0 0 0 9.92 9.6v-5.12a4.73 4.73 0 0 1-3.36-1.38 4.8 4.8 0 0 1-1.42-3.38v-4.83h4.78V6.03H59.9V0zM42.82 6.03A9.84 9.84 0 0 0 33.15 16a9.84 9.84 0 0 0 9.84 9.78 9.84 9.84 0 0 0 9.76-9.87 9.9 9.9 0 0 0-9.93-9.88zm0 14.63a4.74 4.74 0 0 1-4.66-4.8 4.74 4.74 0 0 1 4.74-4.7c2.6 0 4.7 2.13 4.7 4.74a4.8 4.8 0 0 1-1.41 3.38 4.73 4.73 0 0 1-3.37 1.38zM75.85 6.03A9.84 9.84 0 0 0 66.18 16a9.84 9.84 0 0 0 9.85 9.78 9.84 9.84 0 0 0 9.75-9.87 9.9 9.9 0 0 0-9.93-9.88zm0 14.63a4.74 4.74 0 0 1-4.66-4.79 4.74 4.74 0 0 1 4.74-4.72c2.6.01 4.7 2.14 4.7 4.75a4.77 4.77 0 0 1-4.78 4.76zM10.4 6.03A9.9 9.9 0 0 0 .48 16.3v13.5L5.61 32v-7.44a9.94 9.94 0 0 0 4.78 1.22 9.79 9.79 0 0 0 8.6-4.9 9.94 9.94 0 0 0 0-9.95 9.79 9.79 0 0 0-8.6-4.9zm0 14.63a4.74 4.74 0 0 1-4.65-4.8 4.74 4.74 0 0 1 4.73-4.7c2.6 0 4.7 2.13 4.7 4.74a4.8 4.8 0 0 1-1.4 3.38 4.73 4.73 0 0 1-3.38 1.38zm11.8-5.03v10.22h5.15V15.9a4.8 4.8 0 0 1 1.42-3.37 4.73 4.73 0 0 1 3.36-1.38V6.03a9.9 9.9 0 0 0-9.93 9.6zm90.34-9.6a9.84 9.84 0 0 0-9.67 9.96 9.84 9.84 0 0 0 9.84 9.79 9.84 9.84 0 0 0 9.76-9.88 9.9 9.9 0 0 0-9.93-9.87zm0 14.63a4.74 4.74 0 0 1-4.66-4.8 4.74 4.74 0 0 1 4.74-4.71c2.6 0 4.7 2.13 4.7 4.75a4.8 4.8 0 0 1-1.4 3.38 4.73 4.73 0 0 1-3.38 1.38zm-17.1 5.12h5.15V6.03h-5.15v19.75zm-5.5-6.64a3.3 3.3 0 0 0-3.24 3.35 3.3 3.3 0 0 0 3.3 3.3 3.3 3.3 0 0 0 3.29-3.33 3.33 3.33 0 0 0-3.34-3.32z"></path></svg>
